<svg height="512" viewBox="0 0 256 256" width="512" xmlns="http://www.w3.org/2000/svg"><circle cx="128" cy="122.514" fill="#cecece" r="106.356"/><path d="m40.144 122.513a106.361 106.361 0 0 1 97.106-105.95c-3.049-.263-6.133-.4-9.25-.4a106.356 106.356 0 1 0 0 212.712c3.117 0 6.2-.142 9.25-.405a106.361 106.361 0 0 1 -97.106-105.957z" fill="#afafaf"/><path d="m215.856 122.513a106.361 106.361 0 0 0 -97.106-105.95c3.049-.263 6.133-.4 9.25-.4a106.356 106.356 0 1 1 0 212.712c-3.117 0-6.2-.142-9.25-.405a106.361 106.361 0 0 0 97.106-105.957z" fill="#e2e2e2"/><circle cx="128" cy="122.514" fill="#63bce7" r="40.98"/><circle cx="128" cy="106.093" fill="#9e9e9e" r="11.777"/><path d="m123.208 117.87h9.583a13.966 13.966 0 0 1 13.966 13.966v18.875a0 0 0 0 1 0 0h-37.515a0 0 0 0 1 0 0v-18.875a13.966 13.966 0 0 1 13.966-13.966z" fill="#f8af23"/><path d="m174.165 68.16h-46.165v-30.62h46.165l-9.303 15.31z" fill="#f46275"/><rect fill="#707070" height="21.678" rx="2.749" width="7.302" x="124.349" y="33.449"/><g fill="#3f3679"><path d="m27.323 238.342h-18a1.5 1.5 0 1 0 0 3h18a1.5 1.5 0 0 0 0-3z"/><path d="m246.68 238.342h-18a1.5 1.5 0 0 0 0 3h18a1.5 1.5 0 1 0 0-3z"/><path d="m218.479 238.342h-180.958a1.5 1.5 0 0 0 0 3h180.958a1.5 1.5 0 0 0 0-3z"/><path d="m9.32 230.37h237.36a1.5 1.5 0 0 0 0-3h-93.4a107.856 107.856 0 1 0 -50.564 0h-93.396a1.5 1.5 0 1 0 0 3zm13.843-106.356h62.395a42.311 42.311 0 0 0 11.383 27.438l-44.1 44.1a104.5 104.5 0 0 1 -29.678-71.538zm29.679-74.537 44.1 44.1a42.311 42.311 0 0 0 -11.383 27.438h-62.396a104.5 104.5 0 0 1 29.679-71.538zm117.6 74.537h62.395a104.5 104.5 0 0 1 -29.679 71.537l-44.1-44.1a42.311 42.311 0 0 0 11.384-27.437zm-40.942 40.942a42.31 42.31 0 0 0 27.438-11.383l44.1 44.1a104.5 104.5 0 0 1 -71.538 29.678zm-1.5-2.962a39.48 39.48 0 1 1 39.48-39.48 39.524 39.524 0 0 1 -39.48 39.48zm-.9-127.045h1.8a1.251 1.251 0 0 1 1.249 1.249v16.18a1.251 1.251 0 0 1 -1.249 1.249h-1.8a1.251 1.251 0 0 1 -1.249-1.249v-16.178a1.251 1.251 0 0 1 1.249-1.251zm6.053 17.429v-13.337h38.347l-7.48 12.31h-15.88a1.5 1.5 0 0 0 0 3h15.88l7.48 12.31h-42v-10.095a4.242 4.242 0 0 0 3.651-4.189zm23.787 39.077a42.31 42.31 0 0 0 -27.44-11.383v-10.412h44.665a1.5 1.5 0 0 0 1.282-2.279l-8.83-14.531 8.83-14.531a1.5 1.5 0 0 0 -1.282-2.279h-41.03a4.235 4.235 0 0 0 -3.635-4.031v-14.332a104.5 104.5 0 0 1 71.536 29.679zm-30.44-59.446a4.242 4.242 0 0 0 -3.651 4.188v16.18a4.242 4.242 0 0 0 3.651 4.188v23.507a42.31 42.31 0 0 0 -27.438 11.383l-44.1-44.1a104.5 104.5 0 0 1 71.538-29.678zm-27.438 121.564a42.31 42.31 0 0 0 27.438 11.383v62.4a104.5 104.5 0 0 1 -71.536-29.679zm133.775-32.559h-62.395a42.311 42.311 0 0 0 -11.383-27.438l44.1-44.1a104.5 104.5 0 0 1 29.678 71.538z"/><path d="m135.955 116.7a13.276 13.276 0 1 0 -15.91 0 15.491 15.491 0 0 0 -12.3 15.138v18.872a1.5 1.5 0 0 0 1.5 1.5h37.515a1.5 1.5 0 0 0 1.5-1.5v-18.875a15.491 15.491 0 0 0 -12.305-15.135zm-18.231-10.6a10.276 10.276 0 1 1 10.276 10.27 10.288 10.288 0 0 1 -10.276-10.277zm27.534 43.117h-34.515v-17.382a12.48 12.48 0 0 1 12.466-12.466h9.583a12.48 12.48 0 0 1 12.466 12.466z"/></g></svg>