<svg id="Layer_1" enable-background="new 0 0 128 128" height="512" viewBox="0 0 128 128" width="512" xmlns="http://www.w3.org/2000/svg"><path d="m113.178 38.063c0-.107-.019-.217-.053-.319-.076-.231-.235-.426-.446-.548l-46.178-26.816c-.311-.181-.693-.181-1.004 0l-46.181 26.816c-.309.179-.498.508-.498.865v55.884c0 .356.189.686.498.865l46.182 26.811c.155.09.328.135.502.135s.347-.045.502-.135l46.182-26.81c.309-.179.498-.508.498-.865z" fill="#e6e7e8"/><path d="m15.818 71.317v18.627l15.394 8.939v-18.628z" fill="#ffd7e5"/><path d="m19.112 73.23-3.294-1.913v18.627l3.294 1.913z" fill="#fff"/><path d="m15.818 52.69v18.627l15.394 8.938v-18.627z" fill="#ffd7e5"/><path d="m19.112 54.602-3.294-1.912v18.627l3.294 1.913z" fill="#fff"/><g fill="#fa759e"><path d="m61.998 7.245-15.393 8.938 15.393 8.939 15.394-8.939z"/><path d="m46.605 16.183-15.393 8.939 15.393 8.938 15.393-8.938z"/><path d="m31.212 25.122-15.394 8.938 15.394 8.939 15.393-8.939z"/></g><path d="m15.818 34.06v18.628l15.394 8.938v-18.627z" fill="#ffd7e5"/><path d="m19.112 35.973-3.294-1.913v18.628l3.294 1.912z" fill="#fff"/><path d="m31.214 80.255v18.628l15.393 8.938v-18.627z" fill="#ffd7e5"/><path d="m31.212 61.626v18.627l15.393 8.939v-18.628z" fill="#ffd7e5"/><path d="m77.391 16.183-15.394 8.939 15.394 8.938 15.393-8.938z" fill="#fa759e"/><path d="m61.997 25.122-15.393 8.938 15.393 8.939 15.394-8.939z" fill="#fa759e"/><path d="m46.604 34.059-15.393 8.939 15.393 8.938 15.393-8.938z" fill="#fa759e"/><path d="m31.211 42.998v18.627l15.393 8.938v-18.627z" fill="#ffd7e5"/><path d="m92.788 80.256v18.628l15.393-8.939v-18.627z" fill="#6dc9f7"/><path d="m77.395 89.195v18.628l15.393-8.939v-18.627z" fill="#6dc9f7"/><path d="m46.607 89.19v18.627l15.393 8.939v-18.628z" fill="#ffd7e5"/><path d="m62 98.128v18.628l15.393-8.939v-18.627z" fill="#6dc9f7"/><path d="m92.785 61.629v18.628l15.393-8.939v-18.627z" fill="#6dc9f7"/><path d="m77.392 70.567v18.628l15.393-8.939v-18.627z" fill="#6dc9f7"/><path d="m46.605 70.563v18.628l15.393 8.938v-18.627z" fill="#ffd7e5"/><path d="m61.998 79.502v18.627l15.394-8.938v-18.628z" fill="#6dc9f7"/><path d="m92.784 25.122-15.393 8.938 15.393 8.939 15.393-8.939z" fill="#fa759e"/><path d="m92.785 43.002v18.627l15.393-8.938v-18.628z" fill="#6dc9f7"/><path d="m77.391 34.059-15.394 8.938 15.394 8.938 15.393-8.938z" fill="#fa759e"/><path d="m77.392 51.941v18.627l15.393-8.938v-18.628z" fill="#6dc9f7"/><path d="m61.997 42.997-15.393 8.938 15.393 8.939 15.394-8.939z" fill="#fa759e"/><path d="m46.604 51.935v18.628l15.393 8.938v-18.627z" fill="#ffd7e5"/><path d="m61.998 60.87v18.627l15.394-8.938v-18.627z" fill="#6dc9f7"/><path d="m66.626 11.089 2.566 1.49c.158.092.33.135.501.135.345 0 .681-.178.866-.498.277-.478.114-1.089-.363-1.367l-2.566-1.49c-.477-.278-1.089-.115-1.367.363-.277.477-.114 1.089.363 1.367z" fill="#3a2c60"/><path d="m109.177 34.06c0-.356-.189-.686-.498-.865l-15.393-8.938c-.001-.001-.002-.001-.003-.001l-15.386-8.935c-.001-.001-.002-.002-.003-.002l-4.007-2.326c-.48-.279-1.091-.115-1.367.363-.277.478-.114 1.089.363 1.367l2.517 1.461-13.402 7.782-13.402-7.782 13.402-7.782 1.66.964c.478.276 1.09.116 1.367-.363.277-.478.114-1.089-.363-1.367l-2.162-1.256c-.311-.181-.693-.181-1.004 0l-46.18 26.815c-.309.179-.498.508-.498.865v55.884c0 .356.189.686.498.865l46.182 26.811c.155.09.328.135.502.135s.347-.045.502-.135l46.181-26.811c.309-.179.498-.508.498-.865zm-15.392 28.145 13.393-7.777v16.314l-13.393 7.778zm-63.574 16.313-13.393-7.777v-16.314l13.393 7.777zm46.181-8.535-13.394 7.777v-16.311l13.394-7.777zm-14.394-25.829 13.399 7.78-13.402 7.782-13.399-7.78zm29.787 16.9-13.393 7.777v-16.315l13.393-7.777zm-45.182-10.275-8.076-4.689-5.324-3.091 13.401-7.782 13.4 7.781zm-13.214-5.36 12.215 7.092v16.315l-13.393-7.776v-16.315zm44.002 5.36-13.401-7.781 13.401-7.781 13.4 7.781zm-15.394-8.938-13.4-7.781 13.401-7.782 13.4 7.781zm-29.786 21.522 13.394 7.777v16.314l-13.394-7.777zm15.393 6.624v-16.315l4.077 2.368 9.316 5.41v16.315l-9.506-5.52zm15.394 10.09 13.394-7.777v16.315l-13.394 7.777zm15.394-8.933 13.394-7.777v16.314l-13.394 7.777zm-30.787 1.156 9.506 5.52 3.887 2.257v16.313l-13.394-7.777v-16.313zm59.573-20.185-13.393 7.777v-16.315l13.392-7.776zm-14.389-10.271-13.405-7.784 13.401-7.781 13.404 7.784zm-61.578-15.566 13.401 7.781-13.402 7.783-13.4-7.781zm-1.001 17.296v16.315l-13.392-7.776v-16.316zm47.181-10.67-13.402-7.782 13.402-7.782 13.401 7.782zm-30.786-15.564 13.402 7.782-13.402 7.782-13.402-7.782zm-16.394 79.806-13.393-7.777v-16.315l13.393 7.777zm2.003-15.154 13.393 7.777v16.314l-13.393-7.777zm15.393 8.937 13.393 7.777v16.313l-13.394-7.777v-16.313zm28.787 16.312-13.394 7.778v-16.315l13.394-7.777zm2.001-17.47 13.394-7.777v16.314l-13.394 7.777zm28.786-.402-13.393 7.777v-16.314l13.393-7.777z" fill="#3a2c60"/></svg>