<svg xmlns="http://www.w3.org/2000/svg" viewBox="0 0 50 50" width="50" height="50"><path d="M25 2C12.309534 2 2 12.309534 2 25S12.309534 48 25 48 48 37.690466 48 25 37.690466 2 25 2zm0 2c11.609534.0 21 9.390466 21 21S36.609534 46 25 46C13.390466 46 4 36.609534 4 25 4 13.390466 13.390466 4 25 4zm-4 7-10 9h6.78125C17.80125 22.847 19.967531 25.730469 23.769531 25.730469 24.129531 25.730469 24.529688 25.690391 24.929688 25.650391 24.749688 26.100391 24.560547 26.470078 24.560547 27.080078c0 1.15.579844000000001 1.84 1.089844 2.5-1.63.109999999999999-4.660625.299453-6.890625 1.689453-2.13 1.29-2.779297 3.160469-2.779297 4.480469.0 2.72 2.52 5.25 7.75 5.25 6.2.0 9.490234-3.489453 9.490234-6.939453.0-2.53-1.44125-3.780625-3.03125-5.140625l-1.289062-1.029297C28.500391 27.570625 27.949219 27.120312 27.949219 26.320312 27.949219 25.510313 28.500703 24.989766 28.970703 24.509766c1.51-1.2 3.029297-2.549532 3.029297-5.269532.0-1.043-.243797000000001-1.891843-.591797-2.589843L35 13.570312v3.707032C34.405 17.623344 34 18.261 34 19v6C34 26.104 34.896 27 36 27S38 26.104 38 25V19C38 18.262 37.595 17.624344 37 17.277344V12C37 11.957 36.980609 11.920906 36.974609 11.878906L38 11H21zm3.269531 3.240234c3 0 4.550781 4.109766 4.550781 6.759766C28.820312 21.65 28.739922 22.819922 27.919922 23.669922c-.579999999999998.59-1.548984 1.029297-2.458984 1.029297-3.09.0-4.511719-4.079063-4.511719-6.539063C20.949219 17.210156 21.14 16.220938 21.75 15.460938 22.33 14.710938 23.339531 14.240234 24.269531 14.240234zm1.769531 16.369141C26.409063 30.609375 26.590859 30.610391 26.880859 30.650391c2.74 1.98 3.919922 2.969843 3.919922 4.839843.0 2.27-1.830781 3.970704-5.300781 3.970704-3.86.0-6.339844-1.870469-6.339844-4.480469s2.29961-3.48125 3.09961-3.78125C23.769766 30.679219 25.719062 30.609375 26.039062 30.609375z"/></svg>