<svg xmlns="http://www.w3.org/2000/svg" viewBox="0 0 16 16" width="16" height="16"><path d="M8 2c-2.039062.0-3.84375.210938-4.941406.375-.898438.132813-1.613281.835938-1.777344 1.738281C1.140625 4.902344 1 6.054688 1 7.5c0 1.445313.140625 2.597656.28125 3.386719C1.445313 11.789063 2.160156 12.488281 3.058594 12.625 4.160156 12.789063 5.972656 13 8 13S11.835938 12.789063 12.9375 12.625H12.941406C13.839844 12.492188 14.554688 11.789063 14.71875 10.886719 14.859375 10.09375 15 8.941406 15 7.5 15 6.054688 14.859375 4.902344 14.714844 4.113281 14.554688 3.210938 13.839844 2.507813 12.941406 2.375 11.84375 2.210938 10.039063 2 8 2zM8 3c1.96875.0 3.730469.203125 4.792969.363281C13.261719 3.433594 13.640625 3.800781 13.730469 4.289063 13.863281 5.027344 14 6.121094 14 7.5S13.863281 9.972656 13.734375 10.707031C13.644531 11.199219 13.265625 11.566406 12.792969 11.636719 11.722656 11.792969 9.957031 12 8 12 6.042969 12 4.273438 11.792969 3.207031 11.636719 2.738281 11.566406 2.355469 11.199219 2.265625 10.707031 2.136719 9.96875 2 8.878906 2 7.5c0-1.382812.136719-2.472656.265625-3.210937C2.355469 3.800781 2.734375 3.433594 3.203125 3.367188H3.207031C4.269531 3.207031 6.03125 3 8 3zM6 5v5l5-2.5z"/></svg>